<svg xmlns="http://www.w3.org/2000/svg" width="64" height="64" viewBox="0 0 64 64">
  <path fill="@outline_variant@" d="M8 16a8 8 0 0 1 8-8h12l6 6h14a8 8 0 0 1 8 8v28a8 8 0 0 1-8 8H16a8 8 0 0 1-8-8Z" opacity=".55"/>
  <path fill="@primary_container@" d="M6 22a8 8 0 0 1 8-8h14l6 6h16a8 8 0 0 1 8 8v22a8 8 0 0 1-8 8H14a8 8 0 0 1-8-8Z"/>
  <path fill="@primary@" d="M10 26a6 6 0 0 1 6-6h34a6 6 0 0 1 6 6v4H10Z" opacity=".45"/>
  <path fill="@on_primary_container@" d="M18 39h28a2 2 0 0 1 0 4H18a2 2 0 0 1 0-4Z" opacity=".28"/>
</svg>
